<?xml version="1.0" encoding="UTF-8" standalone="no"?>
<svg
   width="638"
   height="406"
   viewBox="133 12 638 406"
   version="1.1"
   id="svg12"
   sodipodi:docname="P2_ISO3690.svg"
   inkscape:version="1.4 (86a8ad7, 2024-10-11)"
   xmlns:inkscape="http://www.inkscape.org/namespaces/inkscape"
   xmlns:sodipodi="http://sodipodi.sourceforge.net/DTD/sodipodi-0.dtd"
   xmlns="http://www.w3.org/2000/svg"
   xmlns:svg="http://www.w3.org/2000/svg">
  <sodipodi:namedview
     id="namedview12"
     pagecolor="#ffffff"
     bordercolor="#000000"
     borderopacity="0.25"
     inkscape:showpageshadow="2"
     inkscape:pageopacity="0.0"
     inkscape:pagecheckerboard="0"
     inkscape:deskcolor="#d1d1d1"
     inkscape:zoom="2"
     inkscape:cx="401.75"
     inkscape:cy="199.25"
     inkscape:window-width="2560"
     inkscape:window-height="1361"
     inkscape:window-x="2551"
     inkscape:window-y="-9"
     inkscape:window-maximized="1"
     inkscape:current-layer="svg12" />
  <defs
     id="defs1">
    <rect
       x="384.5"
       y="-41"
       width="140.5"
       height="165.5"
       id="rect13" />
    <style
       id="style1">
      .metal { fill: #83aeca; stroke: #18334a; stroke-width: 4; }
      .weld { fill: #de744b; stroke: #18334a; stroke-width: 4; stroke-linejoin: round; }
      .dim { fill: none; stroke: #18334a; stroke-width: 2; }
      .ext { fill: none; stroke: #758593; stroke-width: 1.5; }
      .label { fill: #18334a; font-family: sans-serif; font-size: 15px; text-anchor: middle; }
      .label-start { fill: #18334a; font-family: sans-serif; font-size: 15px; text-anchor: start; }
      .label-end { fill: #18334a; font-family: sans-serif; font-size: 15px; text-anchor: end; }
    </style>
  </defs>
  <rect
     x="133"
     y="12"
     width="638"
     height="406"
     fill="#f7f9fb"
     id="rect1" />
  <rect
     class="metal"
     x="200"
     y="135"
     width="500"
     height="150"
     rx="4"
     id="rect2" />
  <path
     class="weld"
     d="M303.28955 135 C346.0801 100 401.09652 82 450 82 C498.90348 82 553.9199 100 596.71045 135 Z"
     id="path2" />
  <line
     class="ext"
     x1="200"
     y1="293"
     x2="200"
     y2="333"
     id="line2" />
  <line
     class="ext"
     x1="700"
     y1="293"
     x2="700"
     y2="333"
     id="line3" />
  <path
     class="dim"
     d="M200 325 H700 M200 325 l8 -5 M200 325 l8 5 M700 325 l-8 -5 M700 325 l-8 5"
     id="path3" />
  <text
     class="label"
     x="450"
     y="352"
     id="text3">Sample width</text>
  <line
     class="ext"
     x1="160"
     y1="105"
     x2="160"
     y2="87"
     id="line4" />
  <line
     class="ext"
     x1="200"
     y1="127"
     x2="200"
     y2="87"
     id="line5" />
  <path
     class="dim"
     d="M160 95 H200 M160 95 l6 -4 M160 95 l6 4 M200 95 l-6 -4 M200 95 l-6 4"
     id="path5" />
  <text
     class="label"
     x="195.5"
     y="83"
     id="text5">Space left</text>
  <line
     class="ext"
     x1="700"
     y1="127"
     x2="700"
     y2="87"
     id="line6" />
  <line
     class="ext"
     x1="740"
     y1="105"
     x2="740"
     y2="87"
     id="line7" />
  <path
     class="dim"
     d="M700 95 H740 M700 95 l6 -4 M700 95 l6 4 M740 95 l-6 -4 M740 95 l-6 4"
     id="path7" />
  <text
     class="label"
     x="698.5"
     y="83"
     id="text7">Space right</text>
  <line
     class="ext"
     x1="708"
     y1="135"
     x2="748"
     y2="135"
     id="line8" />
  <line
     class="ext"
     x1="708"
     y1="285"
     x2="748"
     y2="285"
     id="line9" />
  <path
     class="dim"
     d="M740 135 V285 M740 135 l-5 8 M740 135 l5 8"
     id="path9" />
  <text
     class="label-start"
     x="560"
     y="215"
     id="text9">Sample thickness</text>
  <line
     class="ext"
     x1="615.5"
     y1="71.875"
     x2="631.5"
     y2="71.875"
     id="line10" />
  <path
     class="dim"
     d="m 623.5,71.938342 v 60.373318 m 0,-60.373318 -2.48292,4.390787 m 2.48292,-4.390787 2.48292,4.390787 M 623.5,132.31166 l -2.48292,-4.39079 m 2.48292,4.39079 2.48292,-4.39079"
     id="path11" />
  <text
     class="label-end"
     x="611.5"
     y="81.5"
     id="text11">Space above</text>
  <line
     class="ext"
     x1="732"
     y1="358.33096"
     x2="748"
     y2="358.33096"
     id="line12" />
  <path
     class="dim"
     d="m 740,285.18921 v 72.10342 m 0,0 -2.84535,-4.8069 m 2.84535,4.8069 2.84535,-4.8069"
     id="path12" />
  <path
     class="dim"
     d="m 739.99878,211.42105 v 72.10342 m 0,0 -2.84535,-4.8069 m 2.84535,4.8069 2.84535,-4.8069"
     id="path12-9"
     style="fill:none;stroke:#18334a;stroke-width:2" />
  <path
     class="dim"
     d="m 740.05029,339.97622 v -55.50514 m 0,0 2.1053,3.70035 m -2.1053,-3.70035 -2.10531,3.70035"
     id="path12-8"
     style="fill:none;stroke:#18334a;stroke-width:2" />
  <text
     class="label-end"
     x="730"
     y="350.54416"
     id="text12">Space below</text>
  <text
     xml:space="preserve"
     transform="translate(133,12)"
     id="text13"
     style="font-size:18.1211px;font-family:'DejaVu Sans';-inkscape-font-specification:'DejaVu Sans, Normal';text-align:center;writing-mode:lr-tb;direction:ltr;white-space:pre;shape-inside:url(#rect13);display:inline;fill:#40699c;stroke:#40699c;stroke-width:0.377953;stroke-linecap:square;paint-order:stroke markers fill" />
</svg>
